# xmcd
# 
# Track frame offsets:
#     150
#     24422
#     40132
#     68878
#     85101
#     108765
#     129075
#     143946
#     158706
#     166305
#     186813
#     221200
# 
# Disc length: 3224
# 
# Revision: 0
# Processed by: cddbd v1.5.2PL0 Copyright (c) Steve Scherf et al.
# Submitted via: fre:ac v1.0.31
# 
DISCID=9a0c960c
DTITLE=James Chadwick - Undercurrent
DYEAR=0
DGENRE=
TTITLE0=Do Have`em
TTITLE1=No Politics
TTITLE2=New Beginnings
TTITLE3=695
TTITLE4=Seventh Wave
TTITLE5=Waltz On By
TTITLE6=Here`s Hoping For
TTITLE7=Time Travel
TTITLE8=Last View
TTITLE9=Big T
TTITLE10=Undercurrent
TTITLE11=Play Time
EXTD=
EXTT0=
EXTT1=
EXTT2=
EXTT3=
EXTT4=
EXTT5=
EXTT6=
EXTT7=
EXTT8=
EXTT9=
EXTT10=
EXTT11=
PLAYORDER=
